<svg width="2853" height="2752" viewBox="0 0 2853 2752" fill="none" xmlns="http://www.w3.org/2000/svg">
<path d="M2067.66 2493H1811V2244.89H1554.34V2493H1297.66V2244.89H1041V2493H784.334V1996.78H2067.66V2493ZM784.334 1996.78H271V1748.67H527.666V1500.56H271V1252.44H527.666V1004.33H271V756.222H784.334V1996.78ZM2581 1004.33H2324.34V1252.44H2581V1500.56H2324.34V1748.67H2581V1996.78H2067.66V756.222H2581V1004.33ZM1041 508.111H1297.66V260H1554.34V508.111H1811V260H2067.66V756.222H784.334V260H1041V508.111Z" fill="url(#paint0_linear_123_2)"/>
<path d="M933 1248V1052H1033.5V1245.5C1033.5 1265.17 1038.33 1280.33 1048 1291C1057.67 1301.67 1072 1307 1091 1307C1104 1307 1114.67 1304.5 1123 1299.5C1131.33 1294.17 1137.5 1287 1141.5 1278C1145.83 1268.67 1148 1257.83 1148 1245.5V1052H1249V1248C1249 1298.33 1235.33 1335.83 1208 1360.5C1180.67 1384.83 1141.67 1397 1091 1397C1058.33 1397 1030.17 1392 1006.5 1382C982.833 1371.67 964.667 1355.5 952 1333.5C939.333 1311.5 933 1283 933 1248ZM1463.92 1398C1424.26 1398 1390.76 1390.83 1363.42 1376.5C1336.42 1362.17 1316.09 1342.17 1302.42 1316.5C1288.76 1290.83 1281.92 1261 1281.92 1227C1281.92 1193.33 1288.59 1162.83 1301.92 1135.5C1315.26 1108.17 1335.09 1086.5 1361.42 1070.5C1388.09 1054.17 1420.76 1046 1459.42 1046C1483.76 1046 1506.42 1049.5 1527.42 1056.5C1548.42 1063.17 1564.76 1073.17 1576.42 1086.5C1581.76 1092.5 1585.76 1099 1588.42 1106C1591.09 1112.67 1592.42 1120 1592.42 1128C1592.42 1142.33 1588.26 1153.5 1579.92 1161.5C1571.59 1169.5 1560.76 1173.5 1547.42 1173.5C1537.76 1173.5 1529.59 1171.67 1522.92 1168C1516.26 1164 1509.92 1159.67 1503.92 1155C1497.92 1150 1491.09 1145.67 1483.42 1142C1476.09 1138 1466.76 1136 1455.42 1136C1440.76 1136 1428.26 1139.67 1417.92 1147C1407.59 1154.33 1399.76 1164.33 1394.42 1177C1389.42 1189.33 1386.92 1203.5 1386.92 1219.5C1386.92 1238.17 1390.59 1254.17 1397.92 1267.5C1405.26 1280.83 1415.92 1291 1429.92 1298C1444.26 1304.67 1461.92 1308 1482.92 1308C1498.59 1308 1514.42 1306.17 1530.42 1302.5C1546.42 1298.5 1563.26 1293.33 1580.92 1287V1370.5C1565.92 1378.17 1548.92 1384.67 1529.92 1390C1511.26 1395.33 1489.26 1398 1463.92 1398ZM1709.04 1392V1310.5H1791.54C1805.2 1310.5 1815.04 1308.5 1821.04 1304.5C1827.37 1300.17 1830.54 1293.83 1830.54 1285.5C1830.54 1276.83 1827.37 1270.67 1821.04 1267C1815.04 1263.33 1805.2 1261.5 1791.54 1261.5H1709.04V1209.5H1794.54C1811.54 1209.5 1828.37 1210.5 1845.04 1212.5C1861.7 1214.5 1876.87 1218.5 1890.54 1224.5C1904.54 1230.17 1915.7 1238.67 1924.04 1250C1932.37 1261.33 1936.54 1276.5 1936.54 1295.5C1936.54 1318.83 1930.37 1337.5 1918.04 1351.5C1906.04 1365.5 1888.7 1375.83 1866.04 1382.5C1843.7 1388.83 1817.37 1392 1787.04 1392H1709.04ZM1624.04 1392V1052H1724.54V1392H1624.04ZM1682.04 1233V1182H1781.54C1794.87 1182 1804.7 1180 1811.04 1176C1817.37 1172 1820.54 1165.83 1820.54 1157.5C1820.54 1148.83 1817.37 1142.67 1811.04 1139C1804.7 1135.33 1794.87 1133.5 1781.54 1133.5H1682.04V1052H1774.54C1821.54 1052 1858.04 1059.33 1884.04 1074C1910.04 1088.33 1923.04 1112.67 1923.04 1147C1923.04 1163 1920.2 1176.33 1914.54 1187C1908.87 1197.67 1901.2 1206.17 1891.54 1212.5C1881.87 1218.5 1870.87 1223 1858.54 1226C1846.54 1229 1833.87 1231 1820.54 1232C1807.54 1232.67 1794.7 1233 1782.04 1233H1682.04Z" fill="white"/>
<path d="M966.18 1696.16C955.86 1696.16 946.56 1695.02 938.28 1692.74C930 1690.46 922.92 1687.58 917.04 1684.1V1649.9C926.16 1656.02 935.22 1660.76 944.22 1664.12C953.22 1667.48 961.38 1669.16 968.7 1669.16C973.26 1669.16 976.68 1668.5 978.96 1667.18C981.24 1665.74 982.38 1663.82 982.38 1661.42C982.38 1658.9 981.18 1656.92 978.78 1655.48C976.38 1653.92 973.2 1652.66 969.24 1651.7C965.4 1650.62 961.08 1649.54 956.28 1648.46C951.6 1647.26 946.86 1645.88 942.06 1644.32C937.38 1642.64 933.06 1640.42 929.1 1637.66C925.26 1634.78 922.14 1631.18 919.74 1626.86C917.34 1622.54 916.14 1617.08 916.14 1610.48C916.14 1602.32 918.24 1595.18 922.44 1589.06C926.64 1582.82 932.76 1578.02 940.8 1574.66C948.84 1571.18 958.56 1569.44 969.96 1569.44C978.12 1569.44 985.5 1570.34 992.1 1572.14C998.82 1573.94 1004.46 1576.58 1009.02 1580.06C1011.78 1582.1 1013.94 1584.38 1015.5 1586.9C1017.06 1589.3 1017.84 1592.18 1017.84 1595.54C1017.84 1599.74 1016.52 1603.22 1013.88 1605.98C1011.24 1608.74 1007.46 1610.12 1002.54 1610.12C998.94 1610.12 995.7 1609.46 992.82 1608.14C989.94 1606.7 987.18 1605.02 984.54 1603.1C981.9 1601.18 979.08 1599.56 976.08 1598.24C973.08 1596.8 969.66 1596.08 965.82 1596.08C961.98 1596.08 959.04 1596.86 957 1598.42C955.08 1599.98 954.12 1601.9 954.12 1604.18C954.12 1606.7 955.32 1608.74 957.72 1610.3C960.12 1611.74 963.24 1613.06 967.08 1614.26C971.04 1615.34 975.36 1616.48 980.04 1617.68C984.84 1618.88 989.58 1620.32 994.26 1622C999.06 1623.68 1003.38 1625.9 1007.22 1628.66C1011.18 1631.42 1014.36 1634.96 1016.76 1639.28C1019.16 1643.48 1020.36 1648.76 1020.36 1655.12C1020.36 1663.16 1018.38 1670.3 1014.42 1676.54C1010.46 1682.66 1004.46 1687.46 996.42 1690.94C988.5 1694.42 978.42 1696.16 966.18 1696.16ZM1078.35 1696.16C1061.67 1696.16 1048.95 1692.2 1040.19 1684.28C1031.55 1676.36 1027.23 1665.2 1027.23 1650.8C1027.23 1640.72 1029.27 1632.02 1033.35 1624.7C1037.43 1617.38 1043.19 1611.74 1050.63 1607.78C1058.19 1603.82 1067.13 1601.84 1077.45 1601.84C1087.05 1601.84 1095.03 1603.4 1101.39 1606.52C1107.87 1609.52 1112.73 1613.6 1115.97 1618.76C1119.21 1623.8 1120.83 1629.26 1120.83 1635.14C1120.83 1640.78 1119.45 1645.46 1116.69 1649.18C1113.93 1652.9 1110.15 1655.72 1105.35 1657.64C1100.55 1659.44 1095.15 1660.52 1089.15 1660.88C1083.27 1661.24 1077.09 1661 1070.61 1660.16C1064.13 1659.2 1057.77 1657.76 1051.53 1655.84V1636.4C1057.53 1638.08 1062.75 1639.22 1067.19 1639.82C1071.63 1640.42 1075.35 1640.54 1078.35 1640.18C1081.35 1639.82 1083.57 1639.04 1085.01 1637.84C1086.57 1636.64 1087.35 1635.08 1087.35 1633.16C1087.35 1631 1086.45 1629.14 1084.65 1627.58C1082.85 1626.02 1080.33 1625.24 1077.09 1625.24C1073.97 1625.24 1071.21 1626.02 1068.81 1627.58C1066.41 1629.14 1064.49 1631.72 1063.05 1635.32C1061.73 1638.8 1061.07 1643.54 1061.07 1649.54C1061.07 1654.94 1061.79 1659.32 1063.23 1662.68C1064.67 1666.04 1067.07 1668.5 1070.43 1670.06C1073.79 1671.5 1078.41 1672.22 1084.29 1672.22C1090.17 1672.22 1095.87 1671.62 1101.39 1670.42C1106.91 1669.22 1112.07 1667.42 1116.87 1665.02V1687.16C1112.31 1689.92 1106.67 1692.14 1099.95 1693.82C1093.23 1695.38 1086.03 1696.16 1078.35 1696.16ZM1224.62 1564.4V1694H1191.5V1564.4H1224.62ZM1195.1 1674.2C1192.58 1681.28 1188.68 1686.74 1183.4 1690.58C1178.12 1694.3 1171.94 1696.16 1164.86 1696.16C1158.02 1696.16 1151.72 1694.3 1145.96 1690.58C1140.2 1686.86 1135.64 1681.52 1132.28 1674.56C1129.04 1667.48 1127.42 1658.96 1127.42 1649C1127.42 1639.4 1129.04 1631.12 1132.28 1624.16C1135.64 1617.08 1140.2 1611.62 1145.96 1607.78C1151.84 1603.82 1158.62 1601.84 1166.3 1601.84C1173.62 1601.84 1179.68 1603.58 1184.48 1607.06C1189.28 1610.42 1192.52 1615.16 1194.2 1621.28L1191.5 1645.04C1191.5 1641.92 1190.9 1639.22 1189.7 1636.94C1188.5 1634.66 1186.88 1632.86 1184.84 1631.54C1182.8 1630.22 1180.4 1629.56 1177.64 1629.56C1174.64 1629.56 1172 1630.34 1169.72 1631.9C1167.44 1633.46 1165.64 1635.68 1164.32 1638.56C1163.12 1641.32 1162.52 1644.62 1162.52 1648.46C1162.52 1652.3 1163.12 1655.6 1164.32 1658.36C1165.64 1661.12 1167.38 1663.28 1169.54 1664.84C1171.82 1666.28 1174.46 1667 1177.46 1667C1181.66 1667 1185.02 1665.56 1187.54 1662.68C1190.18 1659.68 1191.5 1655.84 1191.5 1651.16L1195.1 1674.2ZM1285.6 1696.16C1268.92 1696.16 1256.2 1692.2 1247.44 1684.28C1238.8 1676.36 1234.48 1665.2 1234.48 1650.8C1234.48 1640.72 1236.52 1632.02 1240.6 1624.7C1244.68 1617.38 1250.44 1611.74 1257.88 1607.78C1265.44 1603.82 1274.38 1601.84 1284.7 1601.84C1294.3 1601.84 1302.28 1603.4 1308.64 1606.52C1315.12 1609.52 1319.98 1613.6 1323.22 1618.76C1326.46 1623.8 1328.08 1629.26 1328.08 1635.14C1328.08 1640.78 1326.7 1645.46 1323.94 1649.18C1321.18 1652.9 1317.4 1655.72 1312.6 1657.64C1307.8 1659.44 1302.4 1660.52 1296.4 1660.88C1290.52 1661.24 1284.34 1661 1277.86 1660.16C1271.38 1659.2 1265.02 1657.76 1258.78 1655.84V1636.4C1264.78 1638.08 1270 1639.22 1274.44 1639.82C1278.88 1640.42 1282.6 1640.54 1285.6 1640.18C1288.6 1639.82 1290.82 1639.04 1292.26 1637.84C1293.82 1636.64 1294.6 1635.08 1294.6 1633.16C1294.6 1631 1293.7 1629.14 1291.9 1627.58C1290.1 1626.02 1287.58 1625.24 1284.34 1625.24C1281.22 1625.24 1278.46 1626.02 1276.06 1627.58C1273.66 1629.14 1271.74 1631.72 1270.3 1635.32C1268.98 1638.8 1268.32 1643.54 1268.32 1649.54C1268.32 1654.94 1269.04 1659.32 1270.48 1662.68C1271.92 1666.04 1274.32 1668.5 1277.68 1670.06C1281.04 1671.5 1285.66 1672.22 1291.54 1672.22C1297.42 1672.22 1303.12 1671.62 1308.64 1670.42C1314.16 1669.22 1319.32 1667.42 1324.12 1665.02V1687.16C1319.56 1689.92 1313.92 1692.14 1307.2 1693.82C1300.48 1695.38 1293.28 1696.16 1285.6 1696.16ZM1386.48 1694V1571.6H1422.66V1694H1386.48ZM1399.26 1694V1661.78H1481.88V1694H1399.26ZM1581.02 1694H1547.36C1546.52 1692.32 1545.92 1689.98 1545.56 1686.98C1545.32 1683.98 1545.14 1680.2 1545.02 1675.64L1544.3 1669.7V1635.14C1544.3 1632.74 1543.46 1631.06 1541.78 1630.1C1540.1 1629.02 1537.58 1628.48 1534.22 1628.48C1530.62 1628.48 1527.44 1628.96 1524.68 1629.92C1522.04 1630.76 1519.64 1631.78 1517.48 1632.98C1515.32 1634.18 1513.16 1635.26 1511 1636.22C1508.84 1637.06 1506.44 1637.48 1503.8 1637.48C1499.36 1637.48 1495.88 1636.28 1493.36 1633.88C1490.84 1631.48 1489.58 1628.36 1489.58 1624.52C1489.58 1621.76 1490.24 1619.24 1491.56 1616.96C1492.88 1614.68 1495.04 1612.52 1498.04 1610.48C1505.96 1604.72 1517.96 1601.84 1534.04 1601.84C1544 1601.84 1552.16 1603.1 1558.52 1605.62C1565 1608.02 1569.8 1612.04 1572.92 1617.68C1576.04 1623.32 1577.6 1630.88 1577.6 1640.36V1663.04C1577.6 1670.12 1577.9 1676.24 1578.5 1681.4C1579.1 1686.44 1579.94 1690.64 1581.02 1694ZM1516.94 1696.16C1507.7 1696.16 1500.5 1693.7 1495.34 1688.78C1490.18 1683.74 1487.6 1677.26 1487.6 1669.34C1487.6 1661.78 1490.06 1655.9 1494.98 1651.7C1499.9 1647.38 1507.16 1644.56 1516.76 1643.24L1536.38 1640.54C1539.38 1640.06 1541.42 1639.46 1542.5 1638.74C1543.7 1638.02 1544.3 1636.88 1544.3 1635.32V1654.58C1543.82 1654.94 1543.16 1655.3 1542.32 1655.66C1541.48 1656.02 1540.16 1656.38 1538.36 1656.74L1531.16 1658.18C1528.64 1658.54 1526.6 1659.32 1525.04 1660.52C1523.48 1661.6 1522.7 1663.34 1522.7 1665.74C1522.7 1668.02 1523.42 1669.82 1524.86 1671.14C1526.42 1672.46 1528.52 1673.12 1531.16 1673.12C1533.8 1673.12 1536.08 1672.46 1538 1671.14C1540.04 1669.82 1541.6 1668.02 1542.68 1665.74C1543.76 1663.34 1544.3 1660.64 1544.3 1657.64L1547.72 1675.82C1544.96 1682.42 1540.94 1687.46 1535.66 1690.94C1530.5 1694.42 1524.26 1696.16 1516.94 1696.16ZM1661.92 1657.28V1626.5H1693.6C1700.32 1626.5 1705.18 1625.48 1708.18 1623.44C1711.18 1621.4 1712.68 1618.28 1712.68 1614.08C1712.68 1610.24 1711.3 1607.36 1708.54 1605.44C1705.78 1603.4 1700.8 1602.38 1693.6 1602.38H1661.92V1571.6H1696.66C1714.54 1571.6 1728.04 1575.32 1737.16 1582.76C1746.28 1590.08 1750.84 1600.22 1750.84 1613.18C1750.84 1621.94 1748.68 1629.68 1744.36 1636.4C1740.16 1643.12 1734.04 1648.28 1726 1651.88C1717.96 1655.48 1708.24 1657.28 1696.84 1657.28H1661.92ZM1639.6 1694V1571.6H1675.78V1694H1639.6ZM1847.86 1694H1814.2C1813.36 1692.32 1812.76 1689.98 1812.4 1686.98C1812.16 1683.98 1811.98 1680.2 1811.86 1675.64L1811.14 1669.7V1635.14C1811.14 1632.74 1810.3 1631.06 1808.62 1630.1C1806.94 1629.02 1804.42 1628.48 1801.06 1628.48C1797.46 1628.48 1794.28 1628.96 1791.52 1629.92C1788.88 1630.76 1786.48 1631.78 1784.32 1632.98C1782.16 1634.18 1780 1635.26 1777.84 1636.22C1775.68 1637.06 1773.28 1637.48 1770.64 1637.48C1766.2 1637.48 1762.72 1636.28 1760.2 1633.88C1757.68 1631.48 1756.42 1628.36 1756.42 1624.52C1756.42 1621.76 1757.08 1619.24 1758.4 1616.96C1759.72 1614.68 1761.88 1612.52 1764.88 1610.48C1772.8 1604.72 1784.8 1601.84 1800.88 1601.84C1810.84 1601.84 1819 1603.1 1825.36 1605.62C1831.84 1608.02 1836.64 1612.04 1839.76 1617.68C1842.88 1623.32 1844.44 1630.88 1844.44 1640.36V1663.04C1844.44 1670.12 1844.74 1676.24 1845.34 1681.4C1845.94 1686.44 1846.78 1690.64 1847.86 1694ZM1783.78 1696.16C1774.54 1696.16 1767.34 1693.7 1762.18 1688.78C1757.02 1683.74 1754.44 1677.26 1754.44 1669.34C1754.44 1661.78 1756.9 1655.9 1761.82 1651.7C1766.74 1647.38 1774 1644.56 1783.6 1643.24L1803.22 1640.54C1806.22 1640.06 1808.26 1639.46 1809.34 1638.74C1810.54 1638.02 1811.14 1636.88 1811.14 1635.32V1654.58C1810.66 1654.94 1810 1655.3 1809.16 1655.66C1808.32 1656.02 1807 1656.38 1805.2 1656.74L1798 1658.18C1795.48 1658.54 1793.44 1659.32 1791.88 1660.52C1790.32 1661.6 1789.54 1663.34 1789.54 1665.74C1789.54 1668.02 1790.26 1669.82 1791.7 1671.14C1793.26 1672.46 1795.36 1673.12 1798 1673.12C1800.64 1673.12 1802.92 1672.46 1804.84 1671.14C1806.88 1669.82 1808.44 1668.02 1809.52 1665.74C1810.6 1663.34 1811.14 1660.64 1811.14 1657.64L1814.56 1675.82C1811.8 1682.42 1807.78 1687.46 1802.5 1690.94C1797.34 1694.42 1791.1 1696.16 1783.78 1696.16ZM1874.09 1694C1867.37 1694 1862.33 1692.62 1858.97 1689.86C1855.73 1687.1 1854.11 1683.32 1854.11 1678.52C1854.11 1675.52 1854.77 1672.7 1856.09 1670.06C1857.53 1667.42 1859.93 1664.48 1863.29 1661.24L1900.55 1621.82L1937.45 1626.14L1891.19 1672.58L1890.11 1666.1H1938.71V1694H1874.09ZM1855.37 1631.9V1604H1937.45V1626.14L1927.37 1631.9H1855.37Z" fill="white"/>
<defs>
<linearGradient id="paint0_linear_123_2" x1="333.295" y1="1556.32" x2="2581.05" y2="1556.32" gradientUnits="userSpaceOnUse">
<stop stop-color="#22D3FF"/>
<stop offset="0.528846" stop-color="#4269F3"/>
<stop offset="0.850962" stop-color="#B14DFF"/>
</linearGradient>
</defs>
</svg>
